<?xml version="1.0" standalone="no"?><!DOCTYPE svg PUBLIC "-//W3C//DTD SVG 1.1//EN" "http://www.w3.org/Graphics/SVG/1.1/DTD/svg11.dtd"><svg t="1530249870243" class="icon" style="" viewBox="0 0 1024 1024" version="1.1" xmlns="http://www.w3.org/2000/svg" p-id="526" xmlns:xlink="http://www.w3.org/1999/xlink" width="200" height="200"><defs><style type="text/css"></style></defs><path d="M674.606327 207.271192m-32.434389 0a21 21 0 1 0 64.868778 0 21 21 0 1 0-64.868778 0Z" p-id="527"></path><path d="M816.699841 349.519155m-32.434389 0a21 21 0 1 0 64.868778 0 21 21 0 1 0-64.868778 0Z" p-id="528"></path><path d="M816.699841 207.271192m-32.434389 0a21 21 0 1 0 64.868778 0 21 21 0 1 0-64.868778 0Z" p-id="529"></path><path d="M674.606327 349.519155m-32.434389 0a21 21 0 1 0 64.868778 0 21 21 0 1 0-64.868778 0Z" p-id="530"></path><path d="M938.714924 85.256109C881.723069 28.418703 808.668469 0 735.459419 0s-146.26365 28.418703-203.101056 85.256109L325.087172 292.5273 142.218997 109.659125l-32.434389 32.434389 182.868175 182.868175L85.381591 532.232881c-109.659125 109.659125-109.659125 296.697436 0 406.356561 56.837406 56.837406 130.046456 85.256109 203.101056 85.256109s146.26365-28.418703 203.101056-85.256109l61.007541-61.007541 0-121.860633 203.101056-203.101056 121.860633 0 61.007541-61.007541C1048.37405 381.953544 1048.37405 195.069683 938.714924 85.256109zM910.141772 463.193967l-48.806033 48.806033-105.643439 0-16.217195 0-12.201508 12.201508L524.172541 727.302564l-12.201508 12.201508 0 16.217195 0 105.643439L463.319449 910.170739c-44.635897 44.635897-109.659125 73.20905-174.682353 73.20905s-130.046456-24.403017-174.682353-73.20905c-93.441931-93.441931-93.441931-255.922775 0-349.519155L560.777066 113.829261c44.635897-44.635897 109.659125-73.20905 174.682353-73.20905 65.023228 0 130.046456 24.403017 174.682353 73.20905C1003.738152 207.271192 1003.738152 369.752036 910.141772 463.193967z" p-id="531"></path><path d="M353.505875 638.030769 288.482647 707.069683 223.459419 638.030769 191.02503 670.465158 260.063944 735.488386 191.02503 800.511614 223.459419 832.946003 288.482647 763.907089 353.505875 832.946003 386.094713 800.511614 316.90135 735.488386 386.094713 670.465158Z" p-id="532"></path></svg>