<?xml version="1.0" standalone="no"?><!DOCTYPE svg PUBLIC "-//W3C//DTD SVG 1.1//EN" "http://www.w3.org/Graphics/SVG/1.1/DTD/svg11.dtd"><svg t="1528855166535" class="icon" style="" viewBox="0 0 1024 1024" version="1.1" xmlns="http://www.w3.org/2000/svg" p-id="1533" xmlns:xlink="http://www.w3.org/1999/xlink" width="200" height="200"><defs><style type="text/css"></style></defs><path d="M320 192 1024 0 1024 64 1024 192 1024 736C1024 824.352 923.712 896 800 896 676.288 896 576 824.352 576 736 576 647.648 676.288 576 800 576 834.368 576 866.912 581.536 896 591.392L896 261.824 448 384 448 864C448 952.352 347.712 1024 224 1024 100.288 1024 0 952.352 0 864 0 775.648 100.288 704 224 704 258.368 704 290.912 709.536 320 719.392L320 384 320 192Z" p-id="1534"></path></svg>